<svg width="529" height="132" xmlns="http://www.w3.org/2000/svg" xmlns:xlink="http://www.w3.org/1999/xlink" xml:space="preserve" overflow="hidden"><defs><clipPath id="clip0"><rect x="365" y="228" width="529" height="132"/></clipPath><clipPath id="clip1"><rect x="365" y="228" width="529" height="132"/></clipPath><clipPath id="clip2"><rect x="366" y="229" width="528" height="131"/></clipPath><clipPath id="clip3"><rect x="366" y="229" width="528" height="131"/></clipPath><clipPath id="clip4"><rect x="366" y="229" width="528" height="131"/></clipPath></defs><g clip-path="url(#clip0)" transform="translate(-365 -228)"><g clip-path="url(#clip1)"><g clip-path="url(#clip2)"><g clip-path="url(#clip3)"><g clip-path="url(#clip4)"><path d="M0 20.2385 0 10.3789 55.9476 10.3789 55.9476 20.2385 32.9103 20.2385 32.9103 79.4569 23.044 79.4569 23.044 20.2385 0 20.2385Z" fill="#000000" fill-rule="nonzero" fill-opacity="1" transform="matrix(1 0 0 1.0001 366.441 229)"/><path d="M67.8034 54.2346 67.8034 44.3818 91.252 44.3818C97.8678 44.3818 103.33 38.9259 103.33 32.3034 103.33 25.6809 97.8678 20.225 91.252 20.225L67.8034 20.225 67.8034 10.3722 91.252 10.3722C103.31 10.3722 113.183 20.2453 113.183 32.3034 113.183 40.7535 108.267 48.4551 100.66 52.0968L97.942 53.3984 113.52 79.4501 102.042 79.4501 86.9629 54.2279 67.8169 54.2279Z" fill="#000000" fill-rule="nonzero" fill-opacity="1" transform="matrix(1 0 0 1.0001 366.441 229)"/><path d="M135.324 10.3722 135.324 79.4569 125.464 79.4569 125.464 10.3722 135.324 10.3722Z" fill="#000000" fill-rule="nonzero" fill-opacity="1" transform="matrix(1 0 0 1.0001 366.441 229)"/><path d="M180.67 10.4733C181.533 10.4059 182.41 10.3722 183.293 10.3722L183.293 19.7799C182.403 19.7799 181.533 19.8271 180.67 19.9148 167.917 21.2366 158.165 32.0201 158.165 44.9145 158.165 58.8003 169.414 70.0491 183.3 70.0491 190.421 70.0491 197.159 67.0616 201.933 61.7811L202.614 61.0325 202.614 49.7162 183.3 49.7162 183.3 40.2949 212.036 40.2949 212.036 64.0942C205.615 73.7043 194.872 79.4569 183.3 79.4569 164.221 79.4569 148.757 63.9931 148.757 44.9145 148.757 26.8273 162.724 11.8154 180.676 10.4733Z" fill="#000000" fill-rule="nonzero" fill-opacity="1" transform="matrix(1 0 0 1.0001 366.441 229)"/><path d="M258.852 10.4733C259.715 10.4059 260.592 10.3722 261.475 10.3722L261.475 19.7799C260.585 19.7799 259.715 19.8271 258.852 19.9148 246.099 21.2366 236.348 32.0201 236.348 44.9145 236.348 58.8003 247.596 70.0491 261.482 70.0491 268.604 70.0491 275.341 67.0616 280.116 61.7811L280.797 61.0325 280.797 49.7162 261.482 49.7162 261.482 40.2949 290.218 40.2949 290.218 64.0942C283.798 73.7043 273.055 79.4569 261.482 79.4569 242.404 79.4569 226.94 63.9931 226.94 44.9145 226.94 26.8273 240.906 11.8154 258.859 10.4733Z" fill="#000000" fill-rule="nonzero" fill-opacity="1" transform="matrix(1 0 0 1.0001 366.441 229)"/><path d="M303.625 10.3722 351.433 10.3722 351.433 20.2318 303.625 20.2318 303.625 10.3722ZM303.625 39.9847 351.433 39.9847 351.433 49.8443 303.625 49.8443 303.625 39.9847ZM351.433 79.4569 303.625 79.4569 303.625 69.5905 351.433 69.5905 351.433 79.4569Z" fill="#000000" fill-rule="nonzero" fill-opacity="1" transform="matrix(1 0 0 1.0001 366.441 229)"/><path d="M363.288 54.2346 363.288 44.3818 386.737 44.3818C393.353 44.3818 398.815 38.9259 398.815 32.3034 398.815 25.6809 393.353 20.225 386.737 20.225L363.288 20.225 363.288 10.3722 386.737 10.3722C398.795 10.3722 408.668 20.2453 408.668 32.3034 408.668 40.7535 403.752 48.4551 396.145 52.0968L393.427 53.3984 409.005 79.4501 397.527 79.4501 382.448 54.2279 363.302 54.2279Z" fill="#000000" fill-rule="nonzero" fill-opacity="1" transform="matrix(1 0 0 1.0001 366.441 229)"/><path d="M303.625 94.1991 303.625 89.8088 309.533 89.8088C317.996 89.8088 324.922 96.7348 324.922 105.198 324.922 113.662 317.996 120.588 309.533 120.588L303.625 120.588 303.625 116.198 309.533 116.198C315.575 116.198 320.532 111.234 320.532 105.198 320.532 99.1626 315.568 94.1991 309.533 94.1991L303.625 94.1991Z" fill="#000000" fill-rule="nonzero" fill-opacity="1" transform="matrix(1 0 0 1.0001 366.441 229)"/><path d="M325.846 120.615 337.068 89.7818 342.632 89.7818 353.854 120.615 349.18 120.615 339.846 94.9814 330.513 120.615 325.839 120.615Z" fill="#000000" fill-rule="nonzero" fill-opacity="1" transform="matrix(1 0 0 1.0001 366.441 229)"/><path d="M354.798 94.2261 354.798 89.829 379.723 89.829 379.723 94.2261 369.459 94.2261 369.459 120.615 365.062 120.615 365.062 94.2261 354.798 94.2261Z" fill="#000000" fill-rule="nonzero" fill-opacity="1" transform="matrix(1 0 0 1.0001 366.441 229)"/><path d="M380.654 120.615 391.876 89.7818 397.44 89.7818 408.661 120.615 403.988 120.615 394.654 94.9814 385.321 120.615 380.647 120.615Z" fill="#000000" fill-rule="nonzero" fill-opacity="1" transform="matrix(1 0 0 1.0001 366.441 229)"/><path d="M419.04 0 419.04 33.3824 454.372 33.3824 454.325 98.8929 466.936 98.8929 466.936 101.004 472.891 101.004 472.891 96.5932 481.341 96.5932 481.341 101.004 491.814 101.004 491.787 33.3757 527.118 33.3757 527.118 0 419.04 0ZM466.019 94.9477 458.29 94.9477 458.29 86.8752 466.019 86.8752 466.019 94.9477ZM479.365 93.754 475.716 93.754 475.716 89.9437 479.365 89.9437 479.365 93.754ZM488.193 96.3639 484.773 96.3639 484.773 92.7896 488.193 92.7896 488.193 96.3639Z" fill="#000000" fill-rule="nonzero" fill-opacity="1" transform="matrix(1 0 0 1.0001 366.441 229)"/><path d="M457.326 104.092 466.956 104.092 466.956 114.154 457.326 114.154Z" fill="#000000" fill-rule="nonzero" fill-opacity="1" transform="matrix(1 0 0 1.0001 366.441 229)"/><path d="M475.716 114.154 491.828 114.154 491.828 130.994 475.716 130.994Z" fill="#000000" fill-rule="nonzero" fill-opacity="1" transform="matrix(1 0 0 1.0001 366.441 229)"/><path d="M473.578 103.56 479.533 103.56 479.533 109.778 473.578 109.778Z" fill="#000000" fill-rule="nonzero" fill-opacity="1" transform="matrix(1 0 0 1.0001 366.441 229)"/><path d="M465.573 118.801 469.856 118.801 469.856 123.272 465.573 123.272Z" fill="#000000" fill-rule="nonzero" fill-opacity="1" transform="matrix(1 0 0 1.0001 366.441 229)"/><path d="M454.331 124.149 460.88 124.149 460.88 130.994 454.331 130.994Z" fill="#000000" fill-rule="nonzero" fill-opacity="1" transform="matrix(1 0 0 1.0001 366.441 229)"/></g></g></g></g></g></svg>